<?xml version="1.0" encoding="UTF-8"?>
<svg xmlns="http://www.w3.org/2000/svg" xmlns:xlink="http://www.w3.org/1999/xlink" width="20px" height="20px" viewBox="0 0 20 20" version="1.1">
<g id="surface1">
<path style=" stroke:none;fill-rule:nonzero;fill:rgb(0%,0%,0%);fill-opacity:1;" d="M 5.351562 10 C 5.351562 11.476562 4.15625 12.664062 2.675781 12.664062 C 1.195312 12.664062 0 11.472656 0 10 C 0 8.53125 1.199219 7.335938 2.675781 7.335938 C 4.15625 7.335938 5.351562 8.53125 5.351562 10 Z M 5.351562 10 "/>
<path style=" stroke:none;fill-rule:nonzero;fill:rgb(0%,0%,0%);fill-opacity:1;" d="M 12.675781 10 C 12.675781 11.476562 11.476562 12.664062 10 12.664062 C 8.523438 12.664062 7.324219 11.476562 7.324219 10 C 7.324219 8.53125 8.523438 7.335938 10 7.335938 C 11.476562 7.335938 12.675781 8.53125 12.675781 10 Z M 12.675781 10 "/>
<path style=" stroke:none;fill-rule:nonzero;fill:rgb(0%,0%,0%);fill-opacity:1;" d="M 20 10 C 20 11.476562 18.804688 12.664062 17.324219 12.664062 C 15.847656 12.664062 14.648438 11.476562 14.648438 10 C 14.648438 8.53125 15.847656 7.335938 17.324219 7.335938 C 18.804688 7.335938 20 8.53125 20 10 Z M 20 10 "/>
</g>
</svg>
